<?xml version="1.0" standalone="no"?>
<!DOCTYPE svg PUBLIC "-//W3C//DTD SVG 20010904//EN"
 "http://www.w3.org/TR/2001/REC-SVG-20010904/DTD/svg10.dtd">
<svg version="1.0" xmlns="http://www.w3.org/2000/svg"
 width="1024.000000pt" height="380.000000pt" viewBox="0 0 1024.000000 380.000000"
 preserveAspectRatio="xMidYMid meet">

<g transform="translate(0.000000,380.000000) scale(0.100000,-0.100000)"
fill="#000000" stroke="none">
<path d="M4558 693 c-19 -5 -62 -67 -56 -83 2 -6 23 9 47 34 42 42 44 57 9 49z"/>
<path d="M2457 563 c-13 -22 -158 -357 -163 -378 -3 -14 -10 -25 -15 -25 -5 0
-9 -7 -9 -15 0 -11 12 -15 45 -15 42 0 58 11 35 25 -15 9 -12 60 5 101 l14 35
97 -3 97 -3 21 -58 c19 -56 20 -60 3 -72 -28 -20 -20 -25 38 -25 58 0 63 4 41
29 -7 9 -32 68 -56 131 -44 120 -119 271 -138 278 -5 1 -12 -1 -15 -5z m93
-244 c0 -5 -38 -9 -85 -9 -47 0 -85 4 -85 9 0 9 65 165 77 184 6 10 93 -163
93 -184z"/>
<path d="M3907 543 c-8 -15 -26 -55 -40 -88 -14 -33 -50 -118 -81 -190 -31
-71 -56 -131 -56 -132 0 -2 20 -3 45 -3 42 0 58 11 35 25 -15 9 -12 60 5 101
l14 35 98 -3 98 -3 19 -59 c17 -55 17 -60 2 -71 -27 -20 -19 -25 39 -25 55 0
67 8 41 29 -8 6 -27 51 -42 99 -33 98 -133 304 -151 310 -6 2 -18 -9 -26 -25z
m103 -224 c0 -5 -38 -9 -85 -9 -47 0 -85 4 -85 9 0 9 65 164 77 184 5 9 93
-164 93 -184z"/>
<path d="M6860 428 c-35 -79 -74 -170 -87 -203 -14 -33 -29 -64 -34 -69 -18
-19 -8 -26 35 -26 46 0 68 13 41 24 -19 7 -19 56 -1 101 l15 35 96 0 96 0 19
-42 c24 -52 25 -87 5 -94 -28 -11 -4 -24 46 -24 49 0 60 8 36 28 -7 6 -26 51
-42 99 -33 98 -134 306 -151 311 -6 1 -40 -62 -74 -140z m150 -105 c0 -10 -24
-13 -85 -13 -47 0 -85 4 -85 9 0 10 65 165 77 184 7 11 92 -156 93 -180z"/>
<path d="M7722 533 c-11 -21 -47 -103 -81 -183 -34 -80 -68 -158 -76 -173 -22
-42 -19 -47 30 -47 49 0 53 4 30 30 -13 15 -14 25 -4 63 6 26 17 51 24 57 8 6
50 10 106 8 l92 -3 20 -59 c18 -55 18 -60 3 -71 -27 -20 -19 -25 39 -25 58 0
63 3 41 26 -8 7 -22 35 -32 61 -70 194 -139 343 -162 351 -6 2 -20 -14 -30
-35z m66 -121 c23 -48 42 -91 42 -95 0 -4 -41 -7 -91 -7 -69 0 -90 3 -86 13
26 64 81 177 87 177 4 0 25 -39 48 -88z"/>
<path d="M2930 550 c0 -5 7 -10 15 -10 23 0 28 -41 23 -212 -4 -134 -8 -163
-22 -173 -9 -7 -16 -15 -16 -19 0 -3 70 -6 155 -6 l155 0 12 25 c15 34 6 40
-32 20 -33 -17 -176 -25 -198 -11 -9 5 -12 60 -12 183 0 150 2 179 17 195 15
17 14 18 -40 18 -32 0 -57 -4 -57 -10z"/>
<path d="M3301 547 c14 -10 17 -38 20 -162 4 -128 7 -155 24 -185 58 -99 228
-101 295 -3 23 34 25 46 28 182 3 114 7 150 20 164 14 16 12 17 -38 17 l-54 0
22 -20 c20 -19 22 -30 21 -148 0 -71 -5 -142 -12 -161 -35 -99 -196 -109 -240
-15 -25 51 -25 299 0 326 15 17 14 18 -43 18 -49 -1 -56 -3 -43 -13z"/>
<path d="M4390 551 c0 -5 7 -11 15 -15 13 -4 15 -35 15 -190 0 -154 -2 -185
-15 -190 -8 -3 -15 -10 -15 -16 0 -6 55 -10 155 -10 166 0 171 1 163 50 l-3
22 -29 -23 c-25 -20 -41 -23 -108 -24 -59 0 -81 4 -88 15 -5 8 -10 53 -10 99
l0 83 90 -4 c86 -4 90 -3 90 17 0 20 -4 21 -90 17 l-90 -4 0 69 c0 40 5 74 12
81 7 7 40 12 79 12 52 0 72 -4 93 -21 31 -25 41 -20 32 16 l-6 25 -145 0 c-80
0 -145 -4 -145 -9z"/>
<path d="M4960 551 c0 -6 7 -11 15 -11 13 0 15 -28 15 -189 0 -159 -2 -190
-15 -195 -8 -3 -15 -10 -15 -16 0 -13 193 -13 241 0 95 26 150 103 150 208 1
77 -28 133 -89 177 -42 29 -47 30 -173 33 -88 3 -129 0 -129 -7z m216 -22
c145 -37 171 -270 39 -346 -32 -19 -53 -23 -105 -21 l-65 3 -3 174 c-2 119 1
178 9 187 14 17 64 18 125 3z"/>
<path d="M5418 543 c21 -15 22 -20 22 -189 0 -161 -2 -176 -20 -194 -11 -11
-20 -22 -20 -25 0 -3 71 -5 159 -5 l159 0 6 32 c8 42 3 44 -34 17 -27 -20 -41
-23 -108 -21 -96 2 -102 9 -102 115 l0 79 90 -4 c86 -4 90 -3 90 16 0 20 -5
21 -90 18 l-90 -4 0 69 c0 40 5 74 12 81 7 7 41 12 83 12 54 0 76 -5 95 -20
34 -26 40 -25 31 8 l-7 27 -150 2 c-138 2 -147 1 -126 -14z"/>
<path d="M5984 545 c18 -14 19 -28 17 -197 -1 -147 -5 -185 -16 -194 -26 -19
-17 -24 45 -24 59 0 79 13 40 25 -19 6 -21 14 -18 73 l3 66 71 12 c87 14 138
45 165 101 28 57 15 101 -40 131 -34 19 -54 22 -162 22 -110 -1 -122 -2 -105
-15z m216 -20 c36 -19 50 -43 50 -87 0 -51 -44 -88 -122 -104 -34 -7 -65 -11
-70 -8 -4 3 -8 45 -8 94 0 67 4 92 16 104 20 21 96 21 134 1z"/>
<path d="M6358 543 c21 -15 22 -20 22 -194 0 -168 -1 -180 -20 -191 -33 -21
-23 -28 40 -28 63 0 73 7 40 28 -17 10 -20 23 -20 81 0 78 5 85 67 95 l42 6
41 -60 c47 -70 61 -116 36 -126 -35 -13 -13 -24 52 -24 65 0 66 1 45 18 -11 9
-35 44 -52 77 -16 33 -39 74 -50 91 l-21 30 46 38 c43 36 45 40 42 84 -3 40
-8 49 -37 69 -31 21 -45 23 -165 22 -122 0 -129 -1 -108 -16z m211 -14 c36
-13 51 -35 51 -77 0 -53 -81 -102 -167 -102 l-33 0 0 76 c0 101 8 114 69 114
26 0 62 -5 80 -11z"/>
<path d="M7166 534 c-4 -15 -5 -28 -3 -30 2 -3 24 5 48 16 24 11 59 20 77 20
38 0 35 15 32 -215 -1 -125 -5 -162 -16 -171 -24 -19 -16 -24 41 -24 53 0 72
11 40 24 -13 5 -15 33 -13 193 l3 188 33 3 c20 2 50 -5 74 -18 46 -24 53 -21
44 15 l-6 25 -174 0 -174 0 -6 -26z"/>
</g>
</svg>
